# xmcd
#
# Track frame offsets:
#	150
#	13758
#	26301
#	37625
#	48574
#	63146
#	75297
#	85758
#	100658
#	110898
#	122515
#
# Disc length: 1820 seconds
#
# Revision: 1
# Processed by: cddbd v1.5.2PL0 Copyright (c) Steve Scherf et al.
# Submitted via: audiograbber 1.83.01
#
DISCID=72071a0b
DTITLE=Worth Lorraine - Country Worthwhile
DYEAR=2007
DGENRE=Country
TTITLE0=Teddy Bear Song
TTITLE1=Crystal Chandeliers
TTITLE2=Your Good Girl's Gonna Go Bad
TTITLE3=My Shoes Keep Walking Back To You
TTITLE4=Apartment #9
TTITLE5=If Teardrops Were Pennies
TTITLE6=You Ain't Woman Enough
TTITLE7=It Wasn't God Who Made Honky Tonk Angels
TTITLE8=I'm Just Me
TTITLE9=I Can't Help It (If I'm Still In Love With You)
TTITLE10=The Key's In The Mailbox
EXTD=
EXTT0=
EXTT1=
EXTT2=
EXTT3=
EXTT4=
EXTT5=
EXTT6=
EXTT7=
EXTT8=
EXTT9=
EXTT10=
PLAYORDER=
